<svg xmlns="http://www.w3.org/2000/svg" xmlns:xlink="http://www.w3.org/1999/xlink" viewBox="0,0,256,256" width="30px" height="30px" fill-rule="nonzero"><g fill="#6d6c7e" fill-rule="nonzero" stroke="none" stroke-width="1" stroke-linecap="butt" stroke-linejoin="miter" stroke-miterlimit="10" stroke-dasharray="" stroke-dashoffset="0" font-family="none" font-weight="none" font-size="none" text-anchor="none" style="mix-blend-mode: normal"><g transform="scale(4,4)"><path d="M30.91797,4c-15.439,0 -28,12.561 -28,28c0,15.439 12.561,28 28,28h3c15.439,0 28,-12.561 28,-28c0,-15.439 -12.561,-28 -28,-28zM33.91797,8c13.233,0 24,10.766 24,24c0,13.234 -10.767,24 -24,24c-13.233,0 -24,-10.766 -24,-24c0,-13.234 10.767,-24 24,-24zM42.71094,21.87891l-14.58594,14.58594l-6.83594,-6.83594l-2.82812,2.82813l9.66406,9.66406l17.41406,-17.41406z"></path></g></g></svg>